<svg id="Layer_1" data-name="Layer 1" xmlns="http://www.w3.org/2000/svg" viewBox="0 0 193 193"><defs><style>.cls-1,.cls-2{fill:none;stroke:#1d1d1b;stroke-miterlimit:10;}.cls-1{stroke-width:5px;}.cls-2{stroke-width:8px;}</style></defs><title>logo za svg</title><circle class="cls-1" cx="96.5" cy="96.5" r="94"/><path class="cls-2" d="M102.13,22.13A212.4,212.4,0,0,0,55.75,66.75c-12.82,16.86-33.87,44.54-24.21,62.42a25.35,25.35,0,0,0,3.59,4.73c18.78,21.67,51.76,19.27,57.39,18.86,3.49-.25,6.29-.68,8-1" transform="translate(-3.5 -3.25)"/><path class="cls-2" d="M103,29.38c27.73,40,58.59,71.15,60.8,84.83a37.23,37.23,0,0,1-.15,12c-.45,2.18-2.86,14-14.14,20.84-1.57,1-10.33,6.09-21,3.92-11-2.23-17.6-10.9-22.56-17.4-3.45-4.53-4.32-7.84-4.95-7.64-1.11.35.48,10.72,11.22,51.47" transform="translate(-3.5 -3.25)"/></svg>